<svg width="136" height="56" viewBox="0 0 136 56" fill="none" xmlns="http://www.w3.org/2000/svg">
<g clip-path="url(#clip0_1510_32532)">
<path d="M0 24.3355V29.26C1.69536 29.2588 3.37431 29.5895 4.94079 30.2331C6.50727 30.8766 7.93052 31.8205 9.12912 33.0106C10.3274 34.2003 11.2777 35.6128 11.9257 37.1672C12.5737 38.7217 12.9067 40.3877 12.9056 42.07H17.8633C17.8588 37.3685 15.9755 32.8608 12.6265 29.536C9.27759 26.2112 4.7366 24.3409 0 24.3355H0Z" fill="#333333"/>
<path d="M24.7934 15.47H16.9365C20.9112 17.9701 24.279 21.3126 26.7984 25.2574V17.4587C26.798 16.9311 26.5866 16.4253 26.2106 16.0524C25.8347 15.6795 25.3249 15.47 24.7934 15.47V15.47Z" fill="#333333"/>
<path d="M4.93657 15.47H0V19.9038C5.92089 19.9099 11.5975 22.2472 15.7843 26.4028C19.9711 30.5585 22.326 36.193 22.3323 42.07H26.7985V37.17C25.7887 31.7846 23.1596 26.8289 19.2572 22.9555C15.3548 19.082 10.3622 16.4723 4.93657 15.47V15.47Z" fill="#333333"/>
<path d="M38.9494 18.3981H35.8027V34.1411H38.9494V18.3981Z" fill="#333333"/>
<path d="M50.5209 25.2189C49.997 24.7462 49.3838 24.3815 48.7169 24.1458C47.2842 23.6465 45.7229 23.6465 44.2902 24.1458C43.623 24.3813 43.0095 24.7461 42.4855 25.2189C41.9716 25.6892 41.5611 26.2597 41.2796 26.8947C40.9887 27.5875 40.8389 28.3306 40.8389 29.0812C40.8389 29.8317 40.9887 30.5748 41.2796 31.2676C41.56 31.9045 41.9707 32.4765 42.4855 32.9476C43.0086 33.4208 43.6217 33.7854 44.2888 34.02C45.7213 34.5203 47.283 34.5203 48.7155 34.02C49.3828 33.7854 49.9961 33.4208 50.5194 32.9476C51.0341 32.4764 51.4447 31.9043 51.7254 31.2676C52.0163 30.5748 52.1661 29.8317 52.1661 29.0812C52.1661 28.3306 52.0163 27.5875 51.7254 26.8947C51.4441 26.2599 51.0341 25.6894 50.5209 25.2189ZM48.36 30.9351C47.8505 31.3907 47.189 31.6428 46.5032 31.6428C45.8174 31.6428 45.1559 31.3907 44.6463 30.9351C44.2181 30.4103 43.9844 29.7555 43.9844 29.0801C43.9844 28.4048 44.2181 27.7499 44.6463 27.2251C45.1559 26.7695 45.8174 26.5174 46.5032 26.5174C47.189 26.5174 47.8505 26.7695 48.36 27.2251C48.7883 27.7499 49.022 28.4048 49.022 29.0801C49.022 29.7555 48.7883 30.4103 48.36 30.9351V30.9351Z" fill="#333333"/>
<path d="M61.8172 25.354H61.7778C61.6322 25.1512 61.4632 24.9661 61.2742 24.8024C61.0453 24.6013 60.7917 24.4297 60.5196 24.2914C59.8318 23.9411 59.0684 23.7626 58.2954 23.7713C57.618 23.7595 56.9481 23.9134 56.3447 24.2193C55.7825 24.5082 55.2861 24.9088 54.8863 25.396C54.4786 25.8982 54.1658 26.4695 53.9632 27.0823C53.7477 27.7136 53.6378 28.3757 53.6381 29.0423C53.6301 29.7578 53.751 30.469 53.9949 31.1423C54.2159 31.7568 54.5605 32.3202 55.0076 32.7985C55.4531 33.2665 55.9937 33.6352 56.5937 33.88C57.246 34.1439 57.9451 34.2748 58.6494 34.265C59.1704 34.2561 59.6854 34.1539 60.1698 33.9633C60.7131 33.7588 61.1837 33.4002 61.5232 32.9322H61.5655V33.9122C61.5773 34.2391 61.523 34.565 61.4059 34.8707C61.2888 35.1764 61.1112 35.4558 60.8835 35.6923C60.5947 35.9459 60.257 36.1387 59.891 36.2591C59.5249 36.3794 59.138 36.4247 58.7538 36.3923C58.1445 36.3991 57.5407 36.2784 56.9815 36.0381C56.4252 35.7913 55.9061 35.4691 55.4392 35.0805L53.698 37.66C54.4097 38.229 55.2416 38.6312 56.1317 38.8367C57.0125 39.0377 57.9135 39.1389 58.8172 39.1384C60.8031 39.1384 62.282 38.6421 63.2538 37.6495C64.2256 36.6569 64.7117 35.2028 64.7122 33.2871V24.0212H61.8208L61.8172 25.354ZM61.6283 29.9663C61.5041 30.2626 61.3222 30.5317 61.093 30.758C60.8596 30.9888 60.5861 31.1757 60.2855 31.3096C59.9734 31.4471 59.6358 31.5182 59.2943 31.5182C58.9529 31.5182 58.6152 31.4471 58.3031 31.3096C58.0066 31.1738 57.7366 30.9871 57.5055 30.758C57.2753 30.5297 57.0927 30.2587 56.9681 29.9603C56.8435 29.662 56.7793 29.3422 56.7793 29.0192C56.7793 28.6962 56.8435 28.3764 56.9681 28.0781C57.0927 27.7797 57.2753 27.5086 57.5055 27.2804C57.7367 27.0513 58.0067 26.8644 58.3031 26.7281C58.6153 26.591 58.9529 26.5202 59.2943 26.5202C59.6357 26.5202 59.9733 26.591 60.2855 26.7281C60.5859 26.8625 60.8595 27.0496 61.093 27.2804C61.4392 27.6258 61.6747 28.065 61.7699 28.543C61.8652 29.0209 61.8159 29.5161 61.6283 29.9663V29.9663Z" fill="#333333"/>
<path d="M76.5336 25.2189C76.0097 24.7462 75.3965 24.3815 74.7296 24.1458C73.2969 23.6465 71.7356 23.6465 70.3029 24.1458C69.6357 24.3813 69.0222 24.7461 68.4982 25.2189C67.9843 25.6892 67.5738 26.2597 67.2923 26.8947C67.0014 27.5875 66.8516 28.3306 66.8516 29.0812C66.8516 29.8317 67.0014 30.5748 67.2923 31.2676C67.5727 31.9045 67.9834 32.4765 68.4982 32.9476C69.0217 33.4209 69.6353 33.7856 70.3029 34.02C71.7354 34.5203 73.2971 34.5203 74.7296 34.02C75.3969 33.7854 76.0102 33.4208 76.5336 32.9476C77.0484 32.4765 77.4591 31.9045 77.7395 31.2676C78.0304 30.5748 78.1802 29.8317 78.1802 29.0812C78.1802 28.3306 78.0304 27.5875 77.7395 26.8947C77.458 26.2597 77.0474 25.6892 76.5336 25.2189V25.2189ZM74.3727 30.9351C73.8632 31.3907 73.2017 31.6428 72.5159 31.6428C71.8301 31.6428 71.1686 31.3907 70.659 30.9351C70.2308 30.4103 69.9971 29.7555 69.9971 29.0801C69.9971 28.4048 70.2308 27.7499 70.659 27.2251C71.1686 26.7695 71.8301 26.5174 72.5159 26.5174C73.2017 26.5174 73.8632 26.7695 74.3727 27.2251C74.801 27.7499 75.0347 28.4048 75.0347 29.0801C75.0347 29.7555 74.801 30.4103 74.3727 30.9351Z" fill="#333333"/>
<path d="M82.3546 24.0912H80.667V34.1411H82.3546V24.0912Z" fill="#333333"/>
<path d="M81.5109 18.9378C81.3472 18.9347 81.1847 18.9656 81.0338 19.0284C80.8829 19.0912 80.7468 19.1845 80.6343 19.3025C80.4627 19.4742 80.3461 19.6925 80.2993 19.9299C80.2525 20.1672 80.2776 20.413 80.3713 20.6363C80.465 20.8595 80.6232 21.0502 80.8259 21.1844C81.0286 21.3186 81.2669 21.3902 81.5105 21.3902C81.7542 21.3902 81.9924 21.3186 82.1951 21.1844C82.3978 21.0502 82.556 20.8595 82.6497 20.6363C82.7434 20.413 82.7685 20.1672 82.7217 19.9299C82.6749 19.6925 82.5583 19.4742 82.3868 19.3025C82.2744 19.1845 82.1385 19.0911 81.9876 19.0283C81.8368 18.9655 81.6744 18.9347 81.5109 18.9378V18.9378Z" fill="#333333"/>
<path d="M94.8377 25.34C94.3629 24.8589 93.7919 24.4819 93.1613 24.2333C92.4693 23.9626 91.7309 23.8278 90.9871 23.8364C90.2865 23.8284 89.5936 23.983 88.9639 24.2879C88.3436 24.5941 87.7945 25.0254 87.3517 25.5542H87.3066V24.0912H85.6211V39.0376H87.3066V32.3596H87.3496C87.7078 32.9721 88.23 33.4741 88.8581 33.81C89.5873 34.2153 90.4126 34.4193 91.2481 34.4008C91.9321 34.4051 92.6098 34.2698 93.2389 34.0032C93.8464 33.7474 94.3948 33.3711 94.8504 32.8972C95.313 32.413 95.6768 31.8444 95.9216 31.2228C96.4407 29.8668 96.4407 28.369 95.9216 27.013C95.6746 26.39 95.3063 25.8215 94.8377 25.34V25.34ZM94.2425 30.59C94.0852 31.0276 93.8391 31.4285 93.5194 31.7679C93.1998 32.1073 92.8134 32.3781 92.3842 32.5633C91.4351 32.9491 90.3713 32.9491 89.4223 32.5633C88.9924 32.3781 88.6055 32.1071 88.2855 31.7673C87.9654 31.4275 87.7192 31.0261 87.5619 30.5879C87.2306 29.6355 87.2306 28.6003 87.5619 27.6479C87.7192 27.2098 87.9654 26.8083 88.2855 26.4685C88.6055 26.1287 88.9924 25.8578 89.4223 25.6725C90.3713 25.2867 91.4351 25.2867 92.3842 25.6725C92.814 25.8578 93.201 26.1287 93.521 26.4685C93.841 26.8083 94.0873 27.2098 94.2446 27.6479C94.5758 28.6003 94.5758 29.6355 94.2446 30.5879L94.2425 30.59Z" fill="#333333"/>
<path d="M104.812 29.12C104.492 28.882 104.134 28.6971 103.754 28.5726C103.337 28.4328 102.911 28.3215 102.478 28.2394C102.154 28.1844 101.832 28.1129 101.515 28.0252C101.233 27.949 100.958 27.8483 100.693 27.7242C100.481 27.6288 100.29 27.4938 100.129 27.3266C99.9921 27.1771 99.9187 26.9811 99.9236 26.7792C99.9203 26.5614 99.9845 26.3478 100.108 26.1674C100.229 25.9892 100.387 25.8391 100.572 25.7271C100.77 25.6083 100.986 25.5214 101.211 25.4695C101.442 25.4128 101.679 25.3839 101.917 25.3834C102.369 25.3694 102.816 25.4851 103.204 25.7166C103.554 25.9353 103.847 26.2332 104.058 26.586L105.465 25.6627C105.153 25.0524 104.647 24.5615 104.025 24.2662C103.399 23.9774 102.715 23.8308 102.024 23.8371C101.556 23.836 101.09 23.9011 100.64 24.0303C100.209 24.1524 99.7997 24.3414 99.4278 24.5903C99.0723 24.8286 98.7763 25.1444 98.5625 25.5136C98.3412 25.9068 98.2292 26.3513 98.2381 26.8016C98.2205 27.2424 98.3213 27.6799 98.5301 28.0693C98.7206 28.395 98.9865 28.6709 99.3058 28.8743C99.6584 29.095 100.041 29.2649 100.441 29.379C100.874 29.5078 101.329 29.6224 101.804 29.7227C102.079 29.7801 102.346 29.8445 102.605 29.9159C102.848 29.9806 103.081 30.0782 103.297 30.2057C103.488 30.318 103.654 30.4679 103.784 30.646C103.914 30.8433 103.978 31.0762 103.968 31.3117C103.976 31.5592 103.908 31.8032 103.773 32.0117C103.639 32.2093 103.462 32.3744 103.254 32.4947C103.03 32.6274 102.785 32.7221 102.529 32.7747C102.27 32.8313 102.005 32.8601 101.74 32.8608C101.214 32.881 100.693 32.7544 100.236 32.4954C99.8158 32.2299 99.446 31.893 99.1436 31.5L97.8037 32.5311C98.2185 33.1705 98.8073 33.6802 99.5019 34.0011C100.214 34.2816 100.975 34.4168 101.741 34.3987C102.24 34.3991 102.737 34.3416 103.222 34.2272C103.684 34.1213 104.123 33.936 104.52 33.6798C104.9 33.4298 105.214 33.0939 105.437 32.6998C105.679 32.2525 105.799 31.75 105.784 31.2424C105.798 30.806 105.709 30.3725 105.524 29.9761C105.357 29.6401 105.113 29.3471 104.812 29.12V29.12Z" fill="#333333"/>
<path d="M116.97 31.7576V24.0912H115.282V28.9912C115.287 29.5195 115.226 30.0463 115.098 30.5592C114.99 30.9989 114.798 31.4141 114.534 31.7828C114.283 32.1255 113.947 32.399 113.56 32.5773C113.114 32.7737 112.631 32.8693 112.143 32.8573C111.814 32.8837 111.482 32.8312 111.177 32.7042C110.872 32.5771 110.603 32.3793 110.391 32.1272C109.985 31.5417 109.787 30.8394 109.827 30.1301V24.0912H108.139V30.2974C108.134 30.86 108.21 31.4203 108.366 31.9613C108.502 32.4409 108.743 32.8847 109.071 33.2612C109.4 33.6292 109.811 33.9167 110.27 34.1012C110.818 34.3133 111.402 34.4157 111.99 34.4022C112.386 34.4054 112.779 34.3509 113.159 34.2405C113.501 34.1415 113.828 33.9972 114.132 33.8114C114.408 33.6426 114.659 33.4367 114.878 33.1996C115.075 32.9886 115.239 32.7496 115.365 32.4905H115.408C115.408 32.7775 115.416 33.0575 115.43 33.3305C115.445 33.6035 115.452 33.8755 115.451 34.1467H117.053C117.053 33.8167 117.038 33.4516 117.009 33.0512C116.98 32.6508 116.967 32.2196 116.97 31.7576Z" fill="#333333"/>
<path d="M135.209 26.2927C135.096 25.8064 134.874 25.3517 134.559 24.9627C134.241 24.5863 133.832 24.2971 133.369 24.1227C132.787 23.9141 132.171 23.8158 131.552 23.8329C130.88 23.8038 130.216 23.9799 129.648 24.3376C129.122 24.7123 128.68 25.1914 128.35 25.7446C128.264 25.5724 128.152 25.3755 128.015 25.1538C127.862 24.9145 127.668 24.7036 127.441 24.5308C127.163 24.3211 126.854 24.1557 126.524 24.0408C126.082 23.8931 125.617 23.8239 125.15 23.8364C124.755 23.8332 124.361 23.8877 123.982 23.9981C123.64 24.0971 123.312 24.2414 123.008 24.4272C122.732 24.5962 122.481 24.802 122.262 25.039C122.065 25.25 121.901 25.489 121.775 25.7481H121.732C121.732 25.4611 121.725 25.1825 121.711 24.9081C121.697 24.6337 121.689 24.3642 121.689 24.0919H120.088C120.088 24.4218 120.102 24.787 120.131 25.1874C120.16 25.5878 120.174 26.0174 120.174 26.4761V34.1418H121.863V29.246C121.858 28.7175 121.919 28.1904 122.047 27.6773C122.155 27.2375 122.346 26.8221 122.611 26.4537C122.862 26.1108 123.197 25.8374 123.584 25.6592C124.03 25.4627 124.514 25.367 125.002 25.3792C125.291 25.3547 125.581 25.4066 125.843 25.5295C126.105 25.6525 126.33 25.8421 126.494 26.0792C126.856 26.8157 127.014 27.6351 126.949 28.4522V34.1432H128.633V28.343C128.628 27.9297 128.698 27.5188 128.839 27.1299C128.964 26.7852 129.156 26.468 129.403 26.1961C129.637 25.9416 129.92 25.737 130.236 25.5948C130.555 25.4513 130.902 25.378 131.253 25.3799C131.67 25.3649 132.084 25.4456 132.465 25.6158C132.764 25.7595 133.024 25.9736 133.221 26.2395C133.411 26.5028 133.544 26.8024 133.611 27.1194C133.683 27.4511 133.72 27.7895 133.719 28.1288V34.1418H135.403V28.0427C135.409 27.4537 135.344 26.8662 135.209 26.2927Z" fill="#333333"/>
</g>
<defs>
<clipPath id="clip0_1510_32532">
<rect width="135.403" height="56" fill="white"/>
</clipPath>
</defs>
</svg>
