<svg id="Layer_1" data-name="Layer 1" xmlns="http://www.w3.org/2000/svg" viewBox="0 0 20 15.16"><defs><style>.cls-1{fill:#ffcd2d;}</style></defs><title>logo</title><path class="cls-1" d="M20,21a7,7,0,0,1-4-1.32,6.88,6.88,0,0,1-8,0A7,7,0,0,1,4,21H2v2H4a8.83,8.83,0,0,0,4-1,8.75,8.75,0,0,0,8,0,8.7,8.7,0,0,0,4,1h2V21Z" transform="translate(-2 -7.84)"/><path class="cls-1" d="M2.71,11a1.13,1.13,0,0,0-.6.5,1,1,0,0,0-.06.78L4,19H4a5.45,5.45,0,0,0,4-2,5.45,5.45,0,0,0,4,2,5.45,5.45,0,0,0,4-2,5.45,5.45,0,0,0,4,2h.05l1.89-6.68a1.05,1.05,0,0,0-.06-.78,1.11,1.11,0,0,0-.6-.5c-.64-.27-4.06-1.51-8.76-3.15a1,1,0,0,0-.38,0,1.22,1.22,0,0,0-.37,0C6.89,9.53,3.35,10.77,2.71,11Z" transform="translate(-2 -7.84)"/></svg>