<?xml version="1.0" standalone="no"?>
<!DOCTYPE svg PUBLIC "-//W3C//DTD SVG 20010904//EN"
 "http://www.w3.org/TR/2001/REC-SVG-20010904/DTD/svg10.dtd">
<svg version="1.0" xmlns="http://www.w3.org/2000/svg"
 width="1280.000000pt" height="1280.000000pt" viewBox="0 0 1280.000000 1280.000000"
 preserveAspectRatio="xMidYMid meet">
<metadata>
Created by potrace 1.11, written by Peter Selinger 2001-2013
</metadata>
<g transform="translate(0.000000,1280.000000) scale(0.100000,-0.100000)"
fill="#000000" stroke="none">
<path d="M6300 11222 c-19 -2 -78 -17 -130 -33 -266 -84 -3252 -1101 -4210
-1434 -184 -64 -450 -156 -590 -205 -759 -263 -937 -328 -1010 -366 -149 -78
-266 -206 -322 -354 -30 -79 -32 -94 -32 -210 l-1 -125 98 -335 c101 -345 193
-658 347 -1190 49 -168 134 -462 190 -655 56 -192 137 -471 180 -620 43 -148
129 -443 190 -655 62 -212 147 -505 190 -653 42 -147 80 -270 83 -273 9 -10
269 16 428 42 341 55 667 162 992 325 411 206 764 480 1080 839 l57 65 57 -65
c174 -197 352 -363 548 -510 529 -397 1152 -634 1813 -691 111 -9 173 -9 285
0 660 57 1281 293 1812 691 200 150 362 303 574 540 l31 35 57 -65 c621 -705
1448 -1125 2365 -1201 80 -6 152 -9 160 -6 8 3 24 43 37 88 12 46 56 201 96
344 41 143 214 755 385 1360 171 605 340 1201 375 1325 161 567 327 1155 341
1217 12 50 15 96 11 173 -9 172 -62 295 -180 412 -109 110 -180 143 -752 357
-559 210 -1573 577 -2415 876 -129 46 -338 120 -465 165 -403 143 -876 310
-1010 356 -71 25 -204 72 -295 104 -91 32 -340 120 -555 196 l-390 137 -195 1
c-107 1 -211 0 -230 -2z"/>
<path d="M3700 3580 c-310 -208 -663 -383 -1010 -501 -342 -118 -602 -176
-1000 -226 -113 -14 -262 -17 -912 -20 l-778 -4 0 -640 0 -641 798 5 c789 4
837 6 1132 43 606 76 1191 248 1743 512 l167 81 148 -71 c488 -233 1048 -405
1568 -482 688 -103 1397 -79 2059 69 395 88 832 239 1197 413 l148 71 172 -84
c507 -244 1060 -414 1613 -494 375 -54 520 -61 1343 -61 l712 0 0 639 0 640
-777 4 c-826 4 -846 5 -1178 58 -609 98 -1214 336 -1743 687 l-142 94 -153
-99 c-920 -602 -2012 -834 -3112 -662 -589 93 -1187 325 -1701 660 -83 55
-153 99 -155 99 -2 0 -65 -41 -139 -90z"/>
</g>
</svg>
