<svg width="178" height="36" viewBox="0 0 178 36" fill="none" xmlns="http://www.w3.org/2000/svg">
<path d="M38.7 27.7298C36.1415 27.7298 33.583 26.9773 31.2395 25.6228C30.53 25.2143 29.67 25.2143 28.939 25.6228C24.2735 28.3318 18.705 28.3318 14.0395 25.6228C13.33 25.2143 12.47 25.2143 11.739 25.6228C9.417 26.9773 6.8585 27.7298 4.3 27.7298H2.15C0.9675 27.7298 0 28.6973 0 29.8798C0 31.0623 0.9675 32.0298 2.15 32.0298H4.3C7.267 32.0298 10.191 31.2773 12.9 29.9013C18.318 32.6748 24.682 32.6748 30.1 29.9013C32.809 31.2988 35.733 32.0298 38.7 32.0298H40.85C42.0325 32.0298 43 31.0623 43 29.8798C43 28.6973 42.0325 27.7298 40.85 27.7298H38.7Z" fill="#FFCD2D"/>
<path d="M4.29959 23.4296H4.19209L0.107088 9.06762C-0.215412 8.12162 0.171588 6.72412 1.52609 6.31563L4.29959 5.41262L8.59959 4.01513L20.1451 0.209625C21.0266 -0.069875 21.9511 -0.069875 22.8326 0.209625L34.3996 4.01513L38.6996 5.41262L41.4731 6.31563C42.9781 6.78863 43.1286 8.27212 42.8921 9.06762L38.8071 23.4296H38.6996C35.9691 23.4296 33.4966 22.2471 31.5401 20.5701C30.7016 19.8391 29.4976 19.8391 28.6591 20.5701C26.7026 22.2471 24.2301 23.4296 21.4996 23.4296C18.7691 23.4296 16.2966 22.2471 14.3401 20.5701C13.5016 19.8391 12.2976 19.8391 11.4591 20.5701C9.50259 22.2471 7.03009 23.4296 4.29959 23.4296Z" fill="#FFCD2D"/>
<path d="M58.914 14.162C58.134 14.162 57.396 14.072 56.7 13.892C56.004 13.7 55.332 13.436 54.684 13.1C54.78 12.62 54.84 12.128 54.864 11.624C54.9 11.12 54.918 10.64 54.918 10.184C55.206 10.1 55.518 10.046 55.854 10.022C56.19 9.998 56.508 9.986 56.808 9.986C56.868 10.706 56.964 11.276 57.096 11.696C57.228 12.104 57.438 12.398 57.726 12.578C58.026 12.758 58.422 12.848 58.914 12.848C59.586 12.848 60.066 12.71 60.354 12.434C60.642 12.146 60.786 11.822 60.786 11.462C60.786 11.102 60.642 10.796 60.354 10.544C60.078 10.292 59.718 10.064 59.274 9.86C58.83 9.644 58.356 9.422 57.852 9.194C57.36 8.954 56.892 8.672 56.448 8.348C56.016 8.012 55.656 7.598 55.368 7.106C55.08 6.614 54.936 6.002 54.936 5.27C54.936 4.418 55.128 3.734 55.512 3.218C55.896 2.69 56.4 2.3 57.024 2.048C57.66 1.796 58.362 1.67 59.13 1.67C59.586 1.67 60.036 1.706 60.48 1.778C60.936 1.85 61.356 1.946 61.74 2.066C62.136 2.174 62.448 2.306 62.676 2.462C62.676 2.93 62.682 3.416 62.694 3.92C62.706 4.412 62.736 4.802 62.784 5.09C62.568 5.222 62.28 5.318 61.92 5.378C61.572 5.426 61.26 5.45 60.984 5.45C60.888 4.79 60.744 4.28 60.552 3.92C60.372 3.56 60.144 3.308 59.868 3.164C59.604 3.02 59.298 2.948 58.95 2.948C58.506 2.948 58.134 3.05 57.834 3.254C57.546 3.458 57.402 3.764 57.402 4.172C57.402 4.58 57.552 4.922 57.852 5.198C58.152 5.474 58.536 5.726 59.004 5.954C59.472 6.17 59.97 6.398 60.498 6.638C61.026 6.866 61.524 7.148 61.992 7.484C62.46 7.808 62.844 8.216 63.144 8.708C63.444 9.188 63.594 9.788 63.594 10.508C63.594 11.228 63.414 11.864 63.054 12.416C62.706 12.968 62.184 13.4 61.488 13.712C60.804 14.012 59.946 14.162 58.914 14.162ZM64.5218 14.054C64.5218 13.802 64.5338 13.574 64.5578 13.37C64.5818 13.154 64.6178 12.968 64.6658 12.812C65.1458 12.788 65.4638 12.674 65.6198 12.47C65.7758 12.254 65.8538 11.846 65.8538 11.246V3.992C65.8538 3.752 65.8118 3.554 65.7278 3.398C65.6558 3.242 65.5238 3.122 65.3318 3.038C65.1398 2.954 64.8698 2.9 64.5218 2.876C64.5218 2.672 64.5338 2.468 64.5578 2.264C64.5938 2.048 64.6538 1.856 64.7378 1.688C65.2298 1.688 65.7098 1.658 66.1778 1.598C66.6458 1.538 67.0598 1.466 67.4198 1.382C67.7918 1.286 68.0678 1.19 68.2478 1.094C68.4278 1.166 68.5658 1.286 68.6618 1.454C68.7698 1.622 68.8238 1.85 68.8238 2.138V11.246C68.8238 11.846 68.9018 12.254 69.0578 12.47C69.2138 12.674 69.5198 12.788 69.9758 12.812C70.0238 12.968 70.0538 13.154 70.0658 13.37C70.0898 13.586 70.1018 13.814 70.1018 14.054C69.9458 14.042 69.7178 14.03 69.4178 14.018C69.1178 14.018 68.7818 14.012 68.4098 14C68.0498 14 67.6838 14 67.3118 14C66.9518 14 66.5858 14 66.2138 14C65.8418 14.012 65.5058 14.018 65.2058 14.018C64.9058 14.03 64.6778 14.042 64.5218 14.054ZM75.761 14.162C74.753 14.162 73.901 13.994 73.205 13.658C72.521 13.31 72.005 12.824 71.657 12.2C71.309 11.576 71.135 10.844 71.135 10.004C71.135 9.032 71.339 8.222 71.747 7.574C72.167 6.914 72.737 6.422 73.457 6.098C74.177 5.762 74.987 5.594 75.887 5.594C76.919 5.594 77.777 5.774 78.461 6.134C79.157 6.494 79.679 6.986 80.027 7.61C80.375 8.234 80.549 8.954 80.549 9.77C80.549 10.67 80.357 11.45 79.973 12.11C79.589 12.77 79.037 13.28 78.317 13.64C77.597 13.988 76.745 14.162 75.761 14.162ZM76.049 12.902C76.541 12.902 76.913 12.65 77.165 12.146C77.417 11.642 77.543 11.018 77.543 10.274C77.543 9.494 77.453 8.846 77.273 8.33C77.093 7.814 76.859 7.43 76.571 7.178C76.283 6.914 75.971 6.782 75.635 6.782C75.119 6.782 74.741 7.034 74.501 7.538C74.261 8.042 74.141 8.66 74.141 9.392C74.141 10.052 74.213 10.652 74.357 11.192C74.501 11.72 74.717 12.14 75.005 12.452C75.293 12.752 75.641 12.902 76.049 12.902ZM86.2886 14.162C85.2086 14.162 84.3326 13.976 83.6606 13.604C83.0006 13.232 82.5146 12.728 82.2026 12.092C81.8906 11.456 81.7346 10.742 81.7346 9.95C81.7346 9.062 81.9086 8.294 82.2566 7.646C82.6046 6.998 83.1086 6.494 83.7686 6.134C84.4286 5.774 85.2026 5.594 86.0906 5.594C86.9786 5.594 87.7106 5.762 88.2866 6.098C88.8626 6.422 89.2886 6.878 89.5646 7.466C89.8526 8.042 90.0086 8.714 90.0326 9.482C89.9366 9.878 89.7626 10.196 89.5106 10.436C89.1626 10.436 88.7666 10.436 88.3226 10.436C87.8786 10.436 87.4106 10.442 86.9186 10.454C86.4386 10.454 85.9466 10.466 85.4426 10.49C84.9506 10.514 84.4766 10.544 84.0206 10.58V9.284H87.3326C87.3326 8.468 87.2246 7.85 87.0086 7.43C86.8046 7.01 86.4926 6.8 86.0726 6.8C85.7966 6.8 85.5506 6.902 85.3346 7.106C85.1306 7.298 84.9746 7.592 84.8666 7.988C84.7586 8.372 84.7046 8.852 84.7046 9.428C84.7046 10.052 84.7826 10.61 84.9386 11.102C85.0946 11.594 85.3526 11.978 85.7126 12.254C86.0726 12.53 86.5586 12.668 87.1706 12.668C87.5906 12.668 88.0106 12.596 88.4306 12.452C88.8506 12.308 89.1986 12.122 89.4746 11.894C89.5946 11.966 89.7026 12.11 89.7986 12.326C89.8946 12.53 89.9426 12.74 89.9426 12.956C89.4746 13.352 88.9406 13.652 88.3406 13.856C87.7526 14.06 87.0686 14.162 86.2886 14.162ZM91.2268 18.41C91.2268 18.122 91.2328 17.876 91.2448 17.672C91.2688 17.48 91.3048 17.312 91.3528 17.168C91.6768 17.144 91.9228 17.078 92.0908 16.97C92.2708 16.874 92.3908 16.694 92.4508 16.43C92.5228 16.166 92.5588 15.776 92.5588 15.26V8.888C92.5588 8.516 92.5348 8.228 92.4868 8.024C92.4388 7.82 92.3188 7.67 92.1268 7.574C91.9468 7.466 91.6588 7.4 91.2628 7.376C91.2628 7.172 91.2748 6.968 91.2988 6.764C91.3348 6.548 91.3948 6.356 91.4788 6.188C92.2348 6.188 92.9308 6.128 93.5668 6.008C94.2148 5.876 94.6828 5.738 94.9708 5.594C95.1508 5.666 95.2888 5.786 95.3848 5.954C95.4808 6.122 95.5288 6.356 95.5288 6.656C95.5288 6.776 95.4988 6.938 95.4388 7.142C95.3788 7.346 95.2888 7.58 95.1688 7.844L95.5288 8.222V15.044C95.5288 15.56 95.5828 15.962 95.6908 16.25C95.8108 16.55 96.0028 16.766 96.2668 16.898C96.5428 17.042 96.9208 17.132 97.4008 17.168C97.4608 17.336 97.4968 17.528 97.5088 17.744C97.5328 17.972 97.5448 18.194 97.5448 18.41C97.3288 18.398 97.0528 18.386 96.7168 18.374C96.3808 18.374 96.0208 18.368 95.6368 18.356C95.2648 18.356 94.8988 18.356 94.5388 18.356C93.9508 18.356 93.3448 18.356 92.7208 18.356C92.0968 18.368 91.5988 18.386 91.2268 18.41ZM96.7708 14.162C96.5188 14.162 96.2848 14.144 96.0688 14.108C95.8528 14.072 95.6128 14.024 95.3488 13.964V12.164C95.5408 12.428 95.7448 12.632 95.9608 12.776C96.1888 12.92 96.4588 12.992 96.7708 12.992C96.9868 12.992 97.2148 12.95 97.4548 12.866C97.6948 12.782 97.9228 12.626 98.1388 12.398C98.3548 12.17 98.5228 11.846 98.6428 11.426C98.7748 10.994 98.8408 10.442 98.8408 9.77C98.8408 9.326 98.7868 8.912 98.6788 8.528C98.5828 8.132 98.4208 7.814 98.1928 7.574C97.9768 7.322 97.6768 7.196 97.2928 7.196C97.0048 7.196 96.7228 7.292 96.4468 7.484C96.1828 7.664 95.9608 7.97 95.7808 8.402C95.6128 8.822 95.5288 9.386 95.5288 10.094L94.7548 8.276C94.9588 7.772 95.1568 7.382 95.3488 7.106C95.5408 6.818 95.7268 6.602 95.9068 6.458C96.0508 6.326 96.2368 6.194 96.4648 6.062C96.7048 5.93 96.9748 5.822 97.2748 5.738C97.5868 5.642 97.9108 5.594 98.2468 5.594C98.9548 5.594 99.5728 5.726 100.101 5.99C100.641 6.242 101.067 6.638 101.379 7.178C101.703 7.718 101.865 8.42 101.865 9.284C101.865 10.256 101.649 11.108 101.217 11.84C100.797 12.572 100.203 13.142 99.4348 13.55C98.6788 13.958 97.7908 14.162 96.7708 14.162ZM106.467 14.162C106.311 13.79 106.131 13.388 105.927 12.956C105.735 12.512 105.531 12.056 105.315 11.588C105.111 11.12 104.901 10.664 104.685 10.22C104.469 9.776 104.265 9.368 104.073 8.996C103.893 8.612 103.737 8.282 103.605 8.006C103.473 7.742 103.353 7.538 103.245 7.394C103.137 7.25 103.023 7.148 102.903 7.088C102.795 7.028 102.663 6.98 102.507 6.944C102.459 6.776 102.417 6.584 102.381 6.368C102.345 6.14 102.327 5.918 102.327 5.702C102.603 5.714 102.969 5.726 103.425 5.738C103.893 5.75 104.385 5.756 104.901 5.756C105.249 5.756 105.603 5.756 105.963 5.756C106.323 5.744 106.659 5.738 106.971 5.738C107.283 5.726 107.535 5.714 107.727 5.702C107.727 5.906 107.709 6.128 107.673 6.368C107.637 6.596 107.595 6.788 107.547 6.944C107.091 6.992 106.827 7.094 106.755 7.25C106.683 7.394 106.755 7.688 106.971 8.132C107.091 8.396 107.211 8.678 107.331 8.978C107.463 9.266 107.589 9.578 107.709 9.914C107.841 10.238 107.967 10.574 108.087 10.922C108.219 11.258 108.345 11.612 108.465 11.984H107.871C108.123 11.252 108.363 10.61 108.591 10.058C108.819 9.506 109.059 8.942 109.311 8.366C109.527 7.85 109.587 7.496 109.491 7.304C109.395 7.112 109.149 6.992 108.753 6.944C108.705 6.788 108.657 6.596 108.609 6.368C108.573 6.128 108.555 5.906 108.555 5.702C108.795 5.714 109.065 5.726 109.365 5.738C109.665 5.75 109.989 5.756 110.337 5.756C110.685 5.756 111.015 5.75 111.327 5.738C111.639 5.726 111.921 5.714 112.173 5.702C112.173 5.906 112.155 6.128 112.119 6.368C112.083 6.608 112.029 6.8 111.957 6.944C111.753 6.992 111.579 7.064 111.435 7.16C111.291 7.244 111.159 7.376 111.039 7.556C110.931 7.736 110.811 7.988 110.679 8.312L108.195 13.928C107.991 14.024 107.721 14.096 107.385 14.144C107.061 14.192 106.755 14.198 106.467 14.162ZM117.209 14.162C116.129 14.162 115.253 13.976 114.581 13.604C113.921 13.232 113.435 12.728 113.123 12.092C112.811 11.456 112.655 10.742 112.655 9.95C112.655 9.062 112.829 8.294 113.177 7.646C113.525 6.998 114.029 6.494 114.689 6.134C115.349 5.774 116.123 5.594 117.011 5.594C117.899 5.594 118.631 5.762 119.207 6.098C119.783 6.422 120.209 6.878 120.485 7.466C120.773 8.042 120.929 8.714 120.953 9.482C120.857 9.878 120.683 10.196 120.431 10.436C120.083 10.436 119.687 10.436 119.243 10.436C118.799 10.436 118.331 10.442 117.839 10.454C117.359 10.454 116.867 10.466 116.363 10.49C115.871 10.514 115.397 10.544 114.941 10.58V9.284H118.253C118.253 8.468 118.145 7.85 117.929 7.43C117.725 7.01 117.413 6.8 116.993 6.8C116.717 6.8 116.471 6.902 116.255 7.106C116.051 7.298 115.895 7.592 115.787 7.988C115.679 8.372 115.625 8.852 115.625 9.428C115.625 10.052 115.703 10.61 115.859 11.102C116.015 11.594 116.273 11.978 116.633 12.254C116.993 12.53 117.479 12.668 118.091 12.668C118.511 12.668 118.931 12.596 119.351 12.452C119.771 12.308 120.119 12.122 120.395 11.894C120.515 11.966 120.623 12.11 120.719 12.326C120.815 12.53 120.863 12.74 120.863 12.956C120.395 13.352 119.861 13.652 119.261 13.856C118.673 14.06 117.989 14.162 117.209 14.162ZM126.449 10.688C126.449 11.204 126.503 11.612 126.611 11.912C126.731 12.2 126.923 12.416 127.187 12.56C127.463 12.692 127.841 12.776 128.321 12.812C128.381 12.98 128.417 13.178 128.429 13.406C128.453 13.622 128.465 13.838 128.465 14.054C128.249 14.042 127.973 14.03 127.637 14.018C127.301 14.018 126.941 14.012 126.557 14C126.185 14 125.819 14 125.459 14C124.871 14 124.265 14 123.641 14C123.017 14.012 122.519 14.03 122.147 14.054C122.147 13.766 122.153 13.526 122.165 13.334C122.189 13.13 122.225 12.956 122.273 12.812C122.597 12.788 122.843 12.728 123.011 12.632C123.191 12.524 123.311 12.338 123.371 12.074C123.443 11.81 123.479 11.42 123.479 10.904V9.914H126.449V10.688ZM126.449 8.69V10.274H123.479V8.33L126.449 6.656C126.449 6.896 126.413 7.166 126.341 7.466C126.281 7.766 126.197 8.144 126.089 8.6L126.449 8.69ZM126.053 8.654C126.137 8.414 126.233 8.144 126.341 7.844C126.449 7.532 126.545 7.304 126.629 7.16C126.893 6.74 127.223 6.392 127.619 6.116C128.015 5.84 128.453 5.702 128.933 5.702C129.401 5.702 129.833 5.846 130.229 6.134C130.193 6.386 130.157 6.68 130.121 7.016C130.085 7.352 130.061 7.694 130.049 8.042C130.049 8.378 130.055 8.684 130.067 8.96C129.863 9.044 129.593 9.104 129.257 9.14C128.921 9.164 128.633 9.176 128.393 9.176C128.369 8.744 128.297 8.438 128.177 8.258C128.057 8.066 127.877 7.97 127.637 7.97C127.469 7.97 127.289 8.072 127.097 8.276C126.917 8.48 126.761 8.744 126.629 9.068C126.509 9.38 126.449 9.716 126.449 10.076L126.053 8.654ZM123.479 10.274V8.888C123.479 8.516 123.455 8.228 123.407 8.024C123.359 7.82 123.239 7.67 123.047 7.574C122.867 7.466 122.579 7.4 122.183 7.376C122.183 7.172 122.195 6.968 122.219 6.764C122.255 6.548 122.315 6.356 122.399 6.188C123.155 6.188 123.851 6.128 124.487 6.008C125.135 5.876 125.603 5.738 125.891 5.594C126.071 5.666 126.209 5.786 126.305 5.954C126.401 6.122 126.449 6.356 126.449 6.656L123.479 10.274ZM141.119 11.246C141.119 11.846 141.179 12.26 141.299 12.488C141.431 12.704 141.653 12.812 141.965 12.812C142.037 12.98 142.085 13.166 142.109 13.37C142.133 13.562 142.145 13.79 142.145 14.054C141.881 14.042 141.521 14.03 141.065 14.018C140.621 14.006 140.195 14 139.787 14C139.511 14 139.193 14 138.833 14C138.473 14.012 138.131 14.018 137.807 14.018C137.483 14.03 137.231 14.042 137.051 14.054C137.051 13.826 137.057 13.61 137.069 13.406C137.093 13.19 137.141 12.992 137.213 12.812C137.501 12.812 137.729 12.692 137.897 12.452C138.077 12.2 138.167 11.75 138.167 11.102V9.482C138.167 8.75 138.059 8.246 137.843 7.97C137.627 7.682 137.315 7.538 136.907 7.538C136.607 7.538 136.331 7.652 136.079 7.88C135.839 8.108 135.641 8.432 135.485 8.852C135.341 9.272 135.269 9.782 135.269 10.382V11.246C135.269 11.858 135.347 12.272 135.503 12.488C135.659 12.704 135.893 12.812 136.205 12.812C136.289 13.004 136.337 13.196 136.349 13.388C136.373 13.58 136.385 13.802 136.385 14.054C136.205 14.042 135.959 14.03 135.647 14.018C135.347 14.018 135.029 14.012 134.693 14C134.369 14 134.063 14 133.775 14C133.499 14 133.175 14 132.803 14C132.431 14.012 132.077 14.018 131.741 14.018C131.405 14.03 131.147 14.042 130.967 14.054C130.967 13.802 130.979 13.568 131.003 13.352C131.027 13.136 131.069 12.956 131.129 12.812C131.597 12.812 131.909 12.704 132.065 12.488C132.221 12.26 132.299 11.846 132.299 11.246V8.888L135.269 6.656C135.269 6.8 135.251 6.968 135.215 7.16C135.179 7.34 135.131 7.532 135.071 7.736C135.155 7.544 135.239 7.364 135.323 7.196C135.407 7.028 135.521 6.872 135.665 6.728C135.929 6.44 136.271 6.194 136.691 5.99C137.111 5.786 137.591 5.684 138.131 5.684C138.647 5.684 139.133 5.78 139.589 5.972C140.057 6.164 140.429 6.476 140.705 6.908C140.981 7.34 141.119 7.91 141.119 8.618V11.246ZM132.299 4.136C132.299 3.86 132.263 3.632 132.191 3.452C132.131 3.272 132.005 3.14 131.813 3.056C131.621 2.96 131.339 2.9 130.967 2.876C130.967 2.672 130.979 2.468 131.003 2.264C131.039 2.048 131.099 1.856 131.183 1.688C131.675 1.688 132.155 1.658 132.623 1.598C133.091 1.538 133.505 1.466 133.865 1.382C134.237 1.286 134.513 1.19 134.693 1.094C134.873 1.166 135.011 1.286 135.107 1.454C135.215 1.622 135.269 1.85 135.269 2.138V4.334H132.299V4.136ZM132.299 3.758H135.269V6.656L132.299 9.446V3.758ZM146.471 14.108C145.595 14.108 144.911 13.868 144.419 13.388C143.939 12.896 143.699 12.026 143.699 10.778V8.888C143.699 8.348 143.639 7.97 143.519 7.754C143.399 7.538 143.081 7.412 142.565 7.376C142.565 7.172 142.577 6.968 142.601 6.764C142.637 6.548 142.697 6.356 142.781 6.188C143.537 6.188 144.209 6.128 144.797 6.008C145.385 5.876 145.823 5.738 146.111 5.594C146.291 5.666 146.429 5.786 146.525 5.954C146.621 6.122 146.669 6.356 146.669 6.656V10.328C146.669 11.132 146.747 11.69 146.903 12.002C147.059 12.302 147.299 12.452 147.623 12.452C148.067 12.452 148.451 12.224 148.775 11.768C149.099 11.312 149.261 10.61 149.261 9.662V8.798C149.261 8.258 149.183 7.88 149.027 7.664C148.871 7.448 148.517 7.322 147.965 7.286C147.965 7.082 147.977 6.878 148.001 6.674C148.025 6.458 148.079 6.266 148.163 6.098C148.943 6.098 149.651 6.05 150.287 5.954C150.923 5.846 151.379 5.726 151.655 5.594C151.835 5.666 151.973 5.786 152.069 5.954C152.165 6.122 152.213 6.356 152.213 6.656V11.588L149.639 12.236C149.555 12.464 149.459 12.668 149.351 12.848C149.243 13.016 149.117 13.166 148.973 13.298C148.721 13.526 148.385 13.718 147.965 13.874C147.545 14.03 147.047 14.108 146.471 14.108ZM150.143 14.162C149.915 14.078 149.753 13.958 149.657 13.802C149.561 13.634 149.513 13.412 149.513 13.136C149.513 12.92 149.537 12.68 149.585 12.416C149.645 12.152 149.705 11.918 149.765 11.714L152.213 10.742C152.213 11.162 152.237 11.486 152.285 11.714C152.333 11.93 152.429 12.08 152.573 12.164C152.729 12.236 152.957 12.278 153.257 12.29C153.293 12.518 153.299 12.74 153.275 12.956C153.251 13.172 153.185 13.376 153.077 13.568C152.597 13.58 152.099 13.634 151.583 13.73C151.067 13.826 150.587 13.97 150.143 14.162ZM157.809 14.108C156.933 14.108 156.249 13.868 155.757 13.388C155.277 12.896 155.037 12.026 155.037 10.778V8.888C155.037 8.348 154.977 7.97 154.857 7.754C154.737 7.538 154.419 7.412 153.903 7.376C153.903 7.172 153.915 6.968 153.939 6.764C153.975 6.548 154.035 6.356 154.119 6.188C154.875 6.188 155.547 6.128 156.135 6.008C156.723 5.876 157.161 5.738 157.449 5.594C157.629 5.666 157.767 5.786 157.863 5.954C157.959 6.122 158.007 6.356 158.007 6.656V10.328C158.007 11.132 158.085 11.69 158.241 12.002C158.397 12.302 158.637 12.452 158.961 12.452C159.405 12.452 159.789 12.224 160.113 11.768C160.437 11.312 160.599 10.61 160.599 9.662V8.798C160.599 8.258 160.521 7.88 160.365 7.664C160.209 7.448 159.855 7.322 159.303 7.286C159.303 7.082 159.315 6.878 159.339 6.674C159.363 6.458 159.417 6.266 159.501 6.098C160.281 6.098 160.989 6.05 161.625 5.954C162.261 5.846 162.717 5.726 162.993 5.594C163.173 5.666 163.311 5.786 163.407 5.954C163.503 6.122 163.551 6.356 163.551 6.656V11.588L160.977 12.236C160.893 12.464 160.797 12.668 160.689 12.848C160.581 13.016 160.455 13.166 160.311 13.298C160.059 13.526 159.723 13.718 159.303 13.874C158.883 14.03 158.385 14.108 157.809 14.108ZM161.481 14.162C161.253 14.078 161.091 13.958 160.995 13.802C160.899 13.634 160.851 13.412 160.851 13.136C160.851 12.92 160.875 12.68 160.923 12.416C160.983 12.152 161.043 11.918 161.103 11.714L163.551 10.742C163.551 11.162 163.575 11.486 163.623 11.714C163.671 11.93 163.767 12.08 163.911 12.164C164.067 12.236 164.295 12.278 164.595 12.29C164.631 12.518 164.637 12.74 164.613 12.956C164.589 13.172 164.523 13.376 164.415 13.568C163.935 13.58 163.437 13.634 162.921 13.73C162.405 13.826 161.925 13.97 161.481 14.162ZM169.867 10.688C169.867 11.204 169.921 11.612 170.029 11.912C170.149 12.2 170.341 12.416 170.605 12.56C170.881 12.692 171.259 12.776 171.739 12.812C171.799 12.98 171.835 13.178 171.847 13.406C171.871 13.622 171.883 13.838 171.883 14.054C171.667 14.042 171.391 14.03 171.055 14.018C170.719 14.018 170.359 14.012 169.975 14C169.603 14 169.237 14 168.877 14C168.289 14 167.683 14 167.059 14C166.435 14.012 165.937 14.03 165.565 14.054C165.565 13.766 165.571 13.526 165.583 13.334C165.607 13.13 165.643 12.956 165.691 12.812C166.015 12.788 166.261 12.728 166.429 12.632C166.609 12.524 166.729 12.338 166.789 12.074C166.861 11.81 166.897 11.42 166.897 10.904V9.914H169.867V10.688ZM169.867 8.69V10.274H166.897V8.33L169.867 6.656C169.867 6.896 169.831 7.166 169.759 7.466C169.699 7.766 169.615 8.144 169.507 8.6L169.867 8.69ZM169.471 8.654C169.555 8.414 169.651 8.144 169.759 7.844C169.867 7.532 169.963 7.304 170.047 7.16C170.311 6.74 170.641 6.392 171.037 6.116C171.433 5.84 171.871 5.702 172.351 5.702C172.819 5.702 173.251 5.846 173.647 6.134C173.611 6.386 173.575 6.68 173.539 7.016C173.503 7.352 173.479 7.694 173.467 8.042C173.467 8.378 173.473 8.684 173.485 8.96C173.281 9.044 173.011 9.104 172.675 9.14C172.339 9.164 172.051 9.176 171.811 9.176C171.787 8.744 171.715 8.438 171.595 8.258C171.475 8.066 171.295 7.97 171.055 7.97C170.887 7.97 170.707 8.072 170.515 8.276C170.335 8.48 170.179 8.744 170.047 9.068C169.927 9.38 169.867 9.716 169.867 10.076L169.471 8.654ZM166.897 10.274V8.888C166.897 8.516 166.873 8.228 166.825 8.024C166.777 7.82 166.657 7.67 166.465 7.574C166.285 7.466 165.997 7.4 165.601 7.376C165.601 7.172 165.613 6.968 165.637 6.764C165.673 6.548 165.733 6.356 165.817 6.188C166.573 6.188 167.269 6.128 167.905 6.008C168.553 5.876 169.021 5.738 169.309 5.594C169.489 5.666 169.627 5.786 169.723 5.954C169.819 6.122 169.867 6.356 169.867 6.656L166.897 10.274ZM54.666 19.778C54.894 19.79 55.194 19.802 55.566 19.814C55.938 19.826 56.28 19.832 56.592 19.832C56.904 19.832 57.288 19.832 57.744 19.832C58.2 19.82 58.656 19.814 59.112 19.814C59.58 19.802 59.982 19.796 60.318 19.796C61.458 19.796 62.37 19.892 63.054 20.084C63.75 20.276 64.254 20.576 64.566 20.984C64.89 21.392 65.052 21.914 65.052 22.55C65.052 23.258 64.806 23.87 64.314 24.386C63.834 24.902 63.144 25.226 62.244 25.358C63.048 25.406 63.708 25.556 64.224 25.808C64.752 26.048 65.142 26.396 65.394 26.852C65.646 27.296 65.772 27.842 65.772 28.49C65.772 29.174 65.592 29.78 65.232 30.308C64.884 30.836 64.32 31.25 63.54 31.55C62.76 31.85 61.722 32 60.426 32C59.946 32 59.448 32 58.932 32C58.428 32 57.924 32 57.42 32C56.916 32.012 56.43 32.018 55.962 32.018C55.506 32.03 55.074 32.042 54.666 32.054C54.666 31.814 54.672 31.586 54.684 31.37C54.708 31.142 54.744 30.956 54.792 30.812C55.116 30.788 55.362 30.728 55.53 30.632C55.71 30.524 55.83 30.338 55.89 30.074C55.962 29.798 55.998 29.396 55.998 28.868V22.892C55.998 22.388 55.962 22.01 55.89 21.758C55.83 21.506 55.71 21.332 55.53 21.236C55.362 21.128 55.11 21.056 54.774 21.02C54.738 20.864 54.708 20.666 54.684 20.426C54.672 20.174 54.666 19.958 54.666 19.778ZM59.112 20.498V28.976C59.112 29.492 59.166 29.882 59.274 30.146C59.382 30.41 59.538 30.59 59.742 30.686C59.946 30.77 60.186 30.812 60.462 30.812C61.014 30.812 61.458 30.626 61.794 30.254C62.142 29.882 62.316 29.366 62.316 28.706C62.316 28.238 62.25 27.854 62.118 27.554C61.986 27.242 61.794 27.002 61.542 26.834C61.302 26.654 61.008 26.528 60.66 26.456C60.324 26.372 59.952 26.33 59.544 26.33H58.518V25.124H59.742C60.234 25.124 60.636 25.04 60.948 24.872C61.272 24.704 61.512 24.464 61.668 24.152C61.824 23.84 61.902 23.468 61.902 23.036C61.902 22.592 61.806 22.22 61.614 21.92C61.434 21.62 61.194 21.398 60.894 21.254C60.606 21.11 60.282 21.038 59.922 21.038C59.718 21.038 59.532 21.056 59.364 21.092C59.208 21.128 59.04 21.194 58.86 21.29L59.112 20.498ZM71.6477 32.162C70.6397 32.162 69.7877 31.994 69.0917 31.658C68.4077 31.31 67.8917 30.824 67.5437 30.2C67.1957 29.576 67.0217 28.844 67.0217 28.004C67.0217 27.032 67.2257 26.222 67.6337 25.574C68.0537 24.914 68.6237 24.422 69.3437 24.098C70.0637 23.762 70.8737 23.594 71.7737 23.594C72.8057 23.594 73.6637 23.774 74.3477 24.134C75.0437 24.494 75.5657 24.986 75.9137 25.61C76.2617 26.234 76.4357 26.954 76.4357 27.77C76.4357 28.67 76.2437 29.45 75.8597 30.11C75.4757 30.77 74.9237 31.28 74.2037 31.64C73.4837 31.988 72.6317 32.162 71.6477 32.162ZM71.9357 30.902C72.4277 30.902 72.7997 30.65 73.0517 30.146C73.3037 29.642 73.4297 29.018 73.4297 28.274C73.4297 27.494 73.3397 26.846 73.1597 26.33C72.9797 25.814 72.7457 25.43 72.4577 25.178C72.1697 24.914 71.8577 24.782 71.5217 24.782C71.0057 24.782 70.6277 25.034 70.3877 25.538C70.1477 26.042 70.0277 26.66 70.0277 27.392C70.0277 28.052 70.0997 28.652 70.2437 29.192C70.3877 29.72 70.6037 30.14 70.8917 30.452C71.1797 30.752 71.5277 30.902 71.9357 30.902ZM77.4242 32.054C77.4242 31.802 77.4362 31.574 77.4602 31.37C77.4842 31.154 77.5202 30.968 77.5682 30.812C78.0482 30.788 78.3662 30.674 78.5222 30.47C78.6782 30.254 78.7562 29.846 78.7562 29.246V21.992C78.7562 21.752 78.7142 21.554 78.6302 21.398C78.5582 21.242 78.4262 21.122 78.2342 21.038C78.0422 20.954 77.7722 20.9 77.4242 20.876C77.4242 20.672 77.4362 20.468 77.4602 20.264C77.4962 20.048 77.5562 19.856 77.6402 19.688C78.1322 19.688 78.6122 19.658 79.0802 19.598C79.5482 19.538 79.9622 19.466 80.3222 19.382C80.6942 19.286 80.9702 19.19 81.1502 19.094C81.3302 19.166 81.4682 19.286 81.5642 19.454C81.6722 19.622 81.7262 19.85 81.7262 20.138V29.246C81.7262 29.846 81.8042 30.254 81.9602 30.47C82.1162 30.674 82.4222 30.788 82.8782 30.812C82.9262 30.968 82.9562 31.154 82.9682 31.37C82.9922 31.586 83.0042 31.814 83.0042 32.054C82.8482 32.042 82.6202 32.03 82.3202 32.018C82.0202 32.018 81.6842 32.012 81.3122 32C80.9522 32 80.5862 32 80.2142 32C79.8542 32 79.4882 32 79.1162 32C78.7442 32.012 78.4082 32.018 78.1082 32.018C77.8082 32.03 77.5802 32.042 77.4242 32.054ZM90.7154 24.152C90.7034 24.464 90.6974 24.788 90.6974 25.124C90.7094 25.448 90.7394 25.766 90.7874 26.078C90.6074 26.174 90.3734 26.258 90.0854 26.33C89.8094 26.402 89.5274 26.438 89.2394 26.438C89.2034 26.138 89.1194 25.868 88.9874 25.628C88.8674 25.376 88.6934 25.178 88.4654 25.034C88.2494 24.89 87.9674 24.818 87.6194 24.818C87.3794 24.818 87.1874 24.884 87.0434 25.016C86.9114 25.136 86.8454 25.298 86.8454 25.502C86.8454 25.646 86.8814 25.784 86.9534 25.916C87.0374 26.048 87.2114 26.198 87.4754 26.366C87.7514 26.522 88.1714 26.72 88.7354 26.96C89.4194 27.236 89.9534 27.5 90.3374 27.752C90.7334 28.004 91.0154 28.274 91.1834 28.562C91.3514 28.85 91.4354 29.198 91.4354 29.606C91.4354 30.146 91.2734 30.608 90.9494 30.992C90.6374 31.376 90.1874 31.67 89.5994 31.874C89.0114 32.066 88.3034 32.162 87.4754 32.162C86.7194 32.162 86.0894 32.108 85.5854 32C85.0814 31.892 84.5894 31.742 84.1094 31.55C84.1454 31.31 84.1694 31.058 84.1814 30.794C84.1934 30.518 84.1934 30.254 84.1814 30.002C84.1814 29.738 84.1694 29.51 84.1454 29.318C84.3254 29.198 84.5654 29.114 84.8654 29.066C85.1774 29.006 85.4654 28.976 85.7294 28.976C85.8014 29.6 85.9814 30.074 86.2694 30.398C86.5694 30.71 86.9354 30.866 87.3674 30.866C87.6674 30.866 87.9134 30.8 88.1054 30.668C88.3094 30.536 88.4114 30.344 88.4114 30.092C88.4114 29.912 88.3634 29.756 88.2674 29.624C88.1834 29.48 88.0214 29.342 87.7814 29.21C87.5534 29.066 87.2114 28.91 86.7554 28.742C86.2274 28.538 85.7714 28.322 85.3874 28.094C85.0034 27.866 84.7034 27.584 84.4874 27.248C84.2834 26.912 84.1814 26.48 84.1814 25.952C84.1814 25.544 84.2654 25.196 84.4334 24.908C84.6134 24.608 84.8654 24.362 85.1894 24.17C85.5134 23.978 85.8854 23.834 86.3054 23.738C86.7374 23.642 87.1994 23.594 87.6914 23.594C88.3634 23.594 88.9334 23.642 89.4014 23.738C89.8694 23.822 90.3074 23.96 90.7154 24.152ZM95.0757 32.162C94.9077 31.622 94.7217 31.052 94.5177 30.452C94.3137 29.84 94.1097 29.24 93.9057 28.652C93.7017 28.064 93.5157 27.536 93.3477 27.068C93.1917 26.6 93.0657 26.246 92.9697 26.006C92.8377 25.658 92.6877 25.406 92.5197 25.25C92.3637 25.082 92.1597 24.98 91.9077 24.944C91.8597 24.788 91.8117 24.602 91.7637 24.386C91.7277 24.158 91.7097 23.93 91.7097 23.702C92.1177 23.714 92.5197 23.726 92.9157 23.738C93.3117 23.75 93.7137 23.756 94.1217 23.756C94.5897 23.756 95.0637 23.75 95.5437 23.738C96.0357 23.726 96.4857 23.714 96.8937 23.702C96.8937 23.93 96.8757 24.158 96.8397 24.386C96.8037 24.602 96.7617 24.788 96.7137 24.944C96.4497 24.956 96.2697 24.998 96.1737 25.07C96.0777 25.13 96.0357 25.25 96.0477 25.43C96.0717 25.598 96.1257 25.85 96.2097 26.186C96.3777 26.702 96.5397 27.278 96.6957 27.914C96.8637 28.55 97.0017 29.258 97.1097 30.038H96.3897L98.9097 23.792C99.0897 23.732 99.2937 23.696 99.5217 23.684C99.7617 23.672 99.9837 23.666 100.188 23.666C100.632 24.674 101.064 25.73 101.484 26.834C101.904 27.938 102.294 29.018 102.654 30.074L101.898 30.11L102.942 26.492C103.05 26.12 103.092 25.832 103.068 25.628C103.044 25.412 102.966 25.256 102.834 25.16C102.714 25.052 102.534 24.98 102.294 24.944C102.234 24.74 102.186 24.536 102.15 24.332C102.126 24.128 102.114 23.918 102.114 23.702C102.342 23.714 102.594 23.726 102.87 23.738C103.146 23.75 103.458 23.756 103.806 23.756C104.166 23.756 104.484 23.75 104.76 23.738C105.036 23.726 105.3 23.714 105.552 23.702C105.552 23.882 105.534 24.092 105.498 24.332C105.474 24.572 105.426 24.776 105.354 24.944C105.15 24.98 104.982 25.046 104.85 25.142C104.73 25.238 104.622 25.388 104.526 25.592C104.442 25.784 104.34 26.048 104.22 26.384L102.384 32C102.276 32.048 102.108 32.084 101.88 32.108C101.664 32.132 101.442 32.144 101.214 32.144C100.998 32.156 100.818 32.162 100.674 32.162C100.362 31.442 100.08 30.788 99.8277 30.2C99.5757 29.6 99.3477 29.024 99.1437 28.472C98.9517 27.92 98.7777 27.356 98.6217 26.78L99.4317 26.186L96.8217 32C96.7017 32.048 96.5337 32.084 96.3177 32.108C96.1017 32.132 95.8797 32.144 95.6517 32.144C95.4237 32.156 95.2317 32.162 95.0757 32.162ZM112.2 32.162C111.972 32.078 111.81 31.952 111.714 31.784C111.618 31.616 111.57 31.394 111.57 31.118C111.57 30.962 111.588 30.776 111.624 30.56C111.66 30.332 111.714 30.116 111.786 29.912L111.858 29.84C111.75 30.212 111.612 30.536 111.444 30.812C111.276 31.076 111.078 31.298 110.85 31.478C110.598 31.694 110.292 31.856 109.932 31.964C109.572 32.072 109.158 32.126 108.69 32.126C107.862 32.126 107.214 31.952 106.746 31.604C106.278 31.256 106.044 30.746 106.044 30.074C106.044 29.618 106.146 29.228 106.35 28.904C106.566 28.568 106.854 28.286 107.214 28.058C107.586 27.818 107.994 27.626 108.438 27.482C108.894 27.338 109.362 27.224 109.842 27.14C110.334 27.044 110.814 26.96 111.282 26.888C111.282 26.6 111.27 26.348 111.246 26.132C111.234 25.916 111.198 25.73 111.138 25.574C111.09 25.406 111.006 25.262 110.886 25.142C110.754 24.986 110.598 24.878 110.418 24.818C110.25 24.758 110.082 24.728 109.914 24.728C109.614 24.728 109.368 24.818 109.176 24.998C108.984 25.178 108.84 25.424 108.744 25.736C108.648 26.036 108.582 26.366 108.546 26.726C108.198 26.726 107.886 26.714 107.61 26.69C107.334 26.666 107.082 26.606 106.854 26.51C106.878 26.174 106.884 25.82 106.872 25.448C106.86 25.076 106.812 24.686 106.728 24.278C107.244 24.062 107.85 23.894 108.546 23.774C109.242 23.642 109.908 23.576 110.544 23.576C111.336 23.576 111.96 23.666 112.416 23.846C112.872 24.014 113.214 24.212 113.442 24.44C113.682 24.68 113.874 25.022 114.018 25.466C114.174 25.898 114.252 26.54 114.252 27.392V28.778C114.252 29.186 114.276 29.498 114.324 29.714C114.372 29.93 114.468 30.08 114.612 30.164C114.768 30.236 114.99 30.278 115.278 30.29C115.314 30.518 115.32 30.74 115.296 30.956C115.272 31.172 115.212 31.376 115.116 31.568C114.624 31.58 114.126 31.634 113.622 31.73C113.118 31.826 112.644 31.97 112.2 32.162ZM109.752 30.416C109.992 30.416 110.226 30.344 110.454 30.2C110.694 30.044 110.892 29.81 111.048 29.498C111.204 29.186 111.282 28.802 111.282 28.346V27.932C110.91 28.004 110.574 28.088 110.274 28.184C109.986 28.28 109.746 28.388 109.554 28.508C109.362 28.628 109.218 28.772 109.122 28.94C109.026 29.108 108.978 29.306 108.978 29.534C108.978 29.846 109.05 30.074 109.194 30.218C109.35 30.35 109.536 30.416 109.752 30.416ZM120.578 28.688C120.578 29.204 120.632 29.612 120.74 29.912C120.86 30.2 121.052 30.416 121.316 30.56C121.592 30.692 121.97 30.776 122.45 30.812C122.51 30.98 122.546 31.178 122.558 31.406C122.582 31.622 122.594 31.838 122.594 32.054C122.378 32.042 122.102 32.03 121.766 32.018C121.43 32.018 121.07 32.012 120.686 32C120.314 32 119.948 32 119.588 32C119 32 118.394 32 117.77 32C117.146 32.012 116.648 32.03 116.276 32.054C116.276 31.766 116.282 31.526 116.294 31.334C116.318 31.13 116.354 30.956 116.402 30.812C116.726 30.788 116.972 30.728 117.14 30.632C117.32 30.524 117.44 30.338 117.5 30.074C117.572 29.81 117.608 29.42 117.608 28.904V27.914H120.578V28.688ZM120.578 26.69V28.274H117.608V26.33L120.578 24.656C120.578 24.896 120.542 25.166 120.47 25.466C120.41 25.766 120.326 26.144 120.218 26.6L120.578 26.69ZM120.182 26.654C120.266 26.414 120.362 26.144 120.47 25.844C120.578 25.532 120.674 25.304 120.758 25.16C121.022 24.74 121.352 24.392 121.748 24.116C122.144 23.84 122.582 23.702 123.062 23.702C123.53 23.702 123.962 23.846 124.358 24.134C124.322 24.386 124.286 24.68 124.25 25.016C124.214 25.352 124.19 25.694 124.178 26.042C124.178 26.378 124.184 26.684 124.196 26.96C123.992 27.044 123.722 27.104 123.386 27.14C123.05 27.164 122.762 27.176 122.522 27.176C122.498 26.744 122.426 26.438 122.306 26.258C122.186 26.066 122.006 25.97 121.766 25.97C121.598 25.97 121.418 26.072 121.226 26.276C121.046 26.48 120.89 26.744 120.758 27.068C120.638 27.38 120.578 27.716 120.578 28.076L120.182 26.654ZM117.608 28.274V26.888C117.608 26.516 117.584 26.228 117.536 26.024C117.488 25.82 117.368 25.67 117.176 25.574C116.996 25.466 116.708 25.4 116.312 25.376C116.312 25.172 116.324 24.968 116.348 24.764C116.384 24.548 116.444 24.356 116.528 24.188C117.284 24.188 117.98 24.128 118.616 24.008C119.264 23.876 119.732 23.738 120.02 23.594C120.2 23.666 120.338 23.786 120.434 23.954C120.53 24.122 120.578 24.356 120.578 24.656L117.608 28.274ZM130.352 23.594C130.604 23.594 130.838 23.612 131.054 23.648C131.282 23.684 131.516 23.732 131.756 23.792V25.592C131.564 25.328 131.354 25.124 131.126 24.98C130.91 24.836 130.646 24.764 130.334 24.764C130.118 24.764 129.89 24.806 129.65 24.89C129.41 24.974 129.182 25.13 128.966 25.358C128.762 25.586 128.594 25.916 128.462 26.348C128.33 26.768 128.264 27.314 128.264 27.986C128.264 28.466 128.318 28.904 128.426 29.3C128.546 29.684 128.72 29.99 128.948 30.218C129.188 30.446 129.482 30.56 129.83 30.56C130.118 30.56 130.394 30.47 130.658 30.29C130.922 30.098 131.144 29.792 131.324 29.372C131.504 28.94 131.594 28.37 131.594 27.662L132.368 29.48C132.152 29.984 131.948 30.38 131.756 30.668C131.576 30.944 131.39 31.154 131.198 31.298C131.066 31.43 130.88 31.562 130.64 31.694C130.412 31.826 130.142 31.934 129.83 32.018C129.53 32.114 129.206 32.162 128.858 32.162C128.174 32.162 127.556 32.036 127.004 31.784C126.464 31.52 126.038 31.112 125.726 30.56C125.414 30.008 125.258 29.3 125.258 28.436C125.258 27.476 125.468 26.636 125.888 25.916C126.308 25.184 126.902 24.614 127.67 24.206C128.438 23.798 129.332 23.594 130.352 23.594ZM134.546 28.742C134.546 29.162 134.57 29.486 134.618 29.714C134.666 29.93 134.762 30.08 134.906 30.164C135.062 30.236 135.29 30.278 135.59 30.29C135.626 30.518 135.626 30.74 135.59 30.956C135.566 31.172 135.506 31.376 135.41 31.568C134.918 31.58 134.414 31.634 133.898 31.73C133.394 31.826 132.92 31.97 132.476 32.162C132.248 32.078 132.086 31.958 131.99 31.802C131.894 31.634 131.846 31.412 131.846 31.136C131.846 30.896 131.876 30.65 131.936 30.398C131.996 30.134 132.074 29.858 132.17 29.57L134.546 28.742ZM134.546 21.758V29.642H131.594V21.758H134.546ZM133.97 19.094C134.15 19.166 134.288 19.286 134.384 19.454C134.492 19.622 134.546 19.85 134.546 20.138V22.334H131.594V22.136C131.594 21.86 131.558 21.632 131.486 21.452C131.414 21.272 131.282 21.14 131.09 21.056C130.898 20.96 130.616 20.9 130.244 20.876C130.244 20.672 130.256 20.468 130.28 20.264C130.316 20.048 130.376 19.856 130.46 19.688C130.952 19.688 131.432 19.658 131.9 19.598C132.368 19.538 132.782 19.466 133.142 19.382C133.514 19.286 133.79 19.19 133.97 19.094Z" fill="#EFEFEF"/>
</svg>
